<svg xmlns="http://www.w3.org/2000/svg">
  <symbol id="check" viewBox="0 0 24 24"><path d="m5 12 4 4L19 6"/></symbol>
  <symbol id="ticket" viewBox="0 0 24 24"><path d="M3 8a2 2 0 0 0 2-2h14a2 2 0 0 0 2 2v2a2 2 0 0 0 0 4v2a2 2 0 0 0-2 2H5a2 2 0 0 0-2-2v-2a2 2 0 0 0 0-4V8Z"/><path d="M13 6v2M13 12v2M13 18v-2"/></symbol>
  <symbol id="calendar-check" viewBox="0 0 24 24"><path d="M6 2v4M18 2v4M3 9h18M5 4h14a2 2 0 0 1 2 2v14H3V6a2 2 0 0 1 2-2Z"/><path d="m8 14 2 2 5-5"/></symbol>
  <symbol id="message" viewBox="0 0 24 24"><path d="M4 4h16v12H8l-4 4V4Z"/><path d="M8 10h.01M12 10h.01M16 10h.01"/></symbol>
  <symbol id="phone" viewBox="0 0 24 24"><path d="M7 3H4a1 1 0 0 0-1 1c0 9.4 7.6 17 17 17a1 1 0 0 0 1-1v-3l-5-2-2 2c-3-1.3-5.7-4-7-7l2-2-2-5Z"/></symbol>
  <symbol id="envelope" viewBox="0 0 24 24"><path d="M3 5h18v14H3V5Z"/><path d="m3 6 9 7 9-7"/></symbol>
  <symbol id="location" viewBox="0 0 24 24"><path d="M12 22s7-6.1 7-13a7 7 0 1 0-14 0c0 6.9 7 13 7 13Z"/><circle cx="12" cy="9" r="2.5"/></symbol>
  <symbol id="clock" viewBox="0 0 24 24"><circle cx="12" cy="12" r="9"/><path d="M12 7v5l3 2"/></symbol>
  <symbol id="calendar" viewBox="0 0 24 24"><path d="M6 2v4M18 2v4M3 9h18M5 4h14a2 2 0 0 1 2 2v14H3V6a2 2 0 0 1 2-2Z"/><path d="M7 13h3M14 13h3M7 17h3M14 17h3"/></symbol>
  <symbol id="instagram" viewBox="0 0 24 24"><rect x="3" y="3" width="18" height="18" rx="5"/><circle cx="12" cy="12" r="4"/><circle cx="17.5" cy="6.5" r="1" fill="currentColor" stroke="none"/></symbol>
  <symbol id="arrow-right" viewBox="0 0 24 24"><path d="M5 12h14M13 6l6 6-6 6"/></symbol>
</svg>
